#N canvas 0 50 450 300 12;
#X floatatom 0 0 5 0 0 0 - - - 0;;
#X msg 0 25 \$1;
#X obj 0 50 print;
#X obj 100 75 loadbang;
#X msg 100 100 hello \, world;
#X obj 100 125 print;
#X msg 200 150 999;
#X connect 0 0 1 0;
#X connect 1 0 2 0;
#X connect 3 0 4 0;
#X connect 4 0 5 0;
#X connect 3 0 6 0;
#X connect 6 0 0 0;
