#N canvas 0 50 450 300 12;
#X floatatom 153.0 106.0 5 0 0 0 - - - 0;;
#X msg 153.0 150.0 \$1;
#X obj 153.0 194.0 print;
#X obj 90.0 18.0 loadbang;
#X msg 27.0 62.0 hello\, world;
#X obj 27.0 106.0 print;
#X msg 153.0 62.0 999;
#X connect 0 0 1 0;
#X connect 1 0 2 0;
#X connect 3 0 4 0;
#X connect 4 0 5 0;
#X connect 3 0 6 0;
#X connect 6 0 0 0;
