#N canvas 0 50 450 300 12;
#X floatatom 216.0 150.0 5 0 0 0 - - - 0;;
#X msg 216.0 194.0 \$1;
#X obj 216.0 238.0 print;
#X obj 90.0 62.0 loadbang;
#X msg 27.0 106.0 hello\, world;
#X obj 27.0 150.0 print;
#X msg 153.0 106.0 999;
#X obj 279.0 18.0 osc~ 220;
#X obj 279.0 62.0 *~ 1;
#X obj 279.0 106.0 cyclone/snapshot~ 50;
#X connect 0 0 1 0;
#X connect 1 0 2 0;
#X connect 3 0 4 0;
#X connect 4 0 5 0;
#X connect 3 0 6 0;
#X connect 6 0 0 0;
#X connect 7 0 8 0;
#X connect 8 0 9 0;
#X connect 9 0 0 0;
